<svg width="39" height="26" viewBox="0 0 39 26" fill="none" xmlns="http://www.w3.org/2000/svg">
<path fill-rule="evenodd" clip-rule="evenodd" d="M13.3685 0C13.5829 0 13.7714 0.141775 13.8309 0.347725L16.9588 11.1747C17.0928 11.6382 17.5799 11.9062 18.0469 11.7733L24.53 9.92818C24.9971 9.79526 25.2671 9.31174 25.1332 8.8482L22.6657 0.307451C22.6213 0.153563 22.7368 0 22.8969 0H35.3108C37.3483 0 39 1.63938 39 3.66166V21.9503C39 23.9726 37.3483 25.6119 35.3108 25.6119H3.68919C1.65171 25.6119 0 23.9726 0 21.9503V3.66166C0 1.63938 1.65171 0 3.68919 0H13.3685ZM20.792 8.87257C21.4925 8.67319 21.8976 7.94791 21.6967 7.2526C21.4958 6.55729 20.7651 6.15526 20.0645 6.35464C19.364 6.55401 18.959 7.2793 19.1598 7.97461C19.3607 8.66991 20.0914 9.07195 20.792 8.87257Z" fill="white"/>
</svg>
